<svg xmlns="http://www.w3.org/2000/svg" width="30" height="30" viewBox="0 0 30.53 30.44" shape-rendering="geometricPrecision" text-rendering="geometricPrecision" image-rendering="optimizeQuality" fill-rule="evenodd" clip-rule="evenodd"><defs><clipPath id="id0" clip-rule="nonzero"><path d="M15.37 27.51l10.4-9.97-7.27-8.97h4.52l7.51 9.27-13.14 12.6-2.02-2.93z"/></clipPath><clipPath id="id3" clip-rule="nonzero"><path d="M14.6 22.74l5.6-5.37-4.62-5.71 1.34-1.35 5.85 7.22-7.08 6.79-1.09-1.58z"/></clipPath><clipPath id="id6" clip-rule="nonzero"><path d="M15.15 2.93L4.76 12.9l7.27 8.96H7.51L0 12.6 13.14 0l2.01 2.93z"/></clipPath><clipPath id="id9" clip-rule="nonzero"><path d="M15.93 7.69l-5.6 5.38 4.62 5.7-1.34 1.36-5.85-7.22 7.08-6.8 1.09 1.58z"/></clipPath><mask id="id1"><linearGradient id="id2" gradientUnits="userSpaceOnUse" x1="13.29" y1="35.57" x2="13.29" y2="10.15"><stop offset="0" stop-color="#fff"/><stop offset="1" stop-opacity="0" stop-color="#fff"/></linearGradient><path fill="url(#id2)" d="M-15.75 6.18h52.98v10.47h-52.98z"/></mask><mask id="id4"><linearGradient id="id5" gradientUnits="userSpaceOnUse" x1="13.29" y1="35.57" x2="13.29" y2="10.15"><stop offset="0" stop-color="#fff"/><stop offset="1" stop-opacity="0" stop-color="#fff"/></linearGradient><path fill="url(#id5)" d="M-15.75 6.18h52.98v10.47h-52.98z"/></mask><mask id="id7"><linearGradient id="id8" gradientUnits="userSpaceOnUse" x1="13.29" y1="35.57" x2="13.29" y2="10.15"><stop offset="0" stop-color="#fff"/><stop offset="1" stop-opacity="0" stop-color="#fff"/></linearGradient><path fill="url(#id8)" d="M-15.75 6.18h52.98v10.47h-52.98z"/></mask><mask id="id10"><linearGradient id="id11" gradientUnits="userSpaceOnUse" x1="13.29" y1="35.57" x2="13.29" y2="10.15"><stop offset="0" stop-color="#fff"/><stop offset="1" stop-opacity="0" stop-color="#fff"/></linearGradient><path fill="url(#id11)" d="M-15.75 6.18h52.98v10.47h-52.98z"/></mask><style>.fil2{fill:none;fill-rule:nonzero}.fil1{fill:#fff}.fil0,.fil3{fill:#c63236;fill-rule:nonzero}.fil3{fill:#2b3238}</style></defs><g id="Camada_x0020_1"><g id="_1848054984672"><path class="fil0" d="M15.37 27.51l10.4-9.97-7.27-8.97h4.52l7.51 9.27-13.14 12.6z"/><g clip-path="url(#id0)"><path id="1" class="fil1" mask="url(#id1)" d="M-15.66 16.56h52.8V6.27h-52.8z"/></g><path class="fil2" d="M15.37 27.51l10.4-9.97-7.27-8.97h4.52l7.51 9.27-13.14 12.6z"/><path class="fil0" d="M14.6 22.74l5.6-5.37-4.62-5.71 1.34-1.35 5.85 7.22-7.08 6.79z"/><g clip-path="url(#id3)"><path id="1" class="fil1" mask="url(#id4)" d="M-15.66 16.56h52.8V6.27h-52.8z"/></g><path class="fil2" d="M14.6 22.74l5.6-5.37-4.62-5.71 1.34-1.35 5.85 7.22-7.08 6.79z"/><path class="fil3" d="M15.15 2.93L4.76 12.9l7.27 8.96H7.51L0 12.6 13.14 0z"/><g clip-path="url(#id6)"><path id="1" class="fil1" mask="url(#id7)" d="M-15.66 16.56h52.8V6.27h-52.8z"/></g><path class="fil2" d="M15.15 2.93L4.76 12.9l7.27 8.96H7.51L0 12.6 13.14 0z"/><path class="fil3" d="M15.93 7.69l-5.6 5.38 4.62 5.7-1.34 1.36-5.85-7.22 7.08-6.8z"/><g clip-path="url(#id9)"><path id="1" class="fil1" mask="url(#id10)" d="M-15.66 16.56h52.8V6.27h-52.8z"/></g><path class="fil2" d="M15.93 7.69l-5.6 5.38 4.62 5.7-1.34 1.36-5.85-7.22 7.08-6.8z"/></g></g></svg>